<svg xmlns="http://www.w3.org/2000/svg" width="56" height="56" viewBox="0 0 56 56">
    <path fill="#ACA497" fill-rule="evenodd" d="M13 3h30c5.523 0 10 4.477 10 10v30c0 5.523-4.477 10-10 10H13C7.477 53 3 48.523 3 43V13C3 7.477 7.477 3 13 3zm-3 32h4V20h-4v15zm11.868-14.991l-.888 6.913-.55-3.76c-.16-1.206-.312-2.257-.459-3.153h-4.969v14.797h3.357l.012-9.77 1.413 9.77h2.392l1.34-9.988.012 9.988h3.347V20.01h-5.007zm10.961 14.797c.918 0 1.606-.05 2.062-.15.456-.1.84-.277 1.15-.53.31-.252.527-.602.652-1.05.125-.446.199-1.333.199-2.66V25.22c0-1.4-.055-2.338-.14-2.816a2.66 2.66 0 0 0-.638-1.3c-.34-.39-.838-.67-1.492-.84-.654-.17-1.721-.255-3.577-.255h-2.86v14.797h4.644zm5.368-14.797v14.797h3.451l.239-.943c.312.38.656.664 1.033.853.376.19.938.284 1.372.284.606 0 1.13-.16 1.57-.478.44-.32.72-.696.84-1.13.12-.436.18-1.096.18-1.983v-4.152c0-.893-.021-1.477-.06-1.75a2.009 2.009 0 0 0-.354-.838c-.196-.286-.48-.508-.853-.666-.373-.158-.813-.237-1.32-.237-.441 0-1.006.088-1.382.262a3.04 3.04 0 0 0-1.023.794V20.01h-3.693zm4.986 11.207c0 .716-.036 1.168-.107 1.356-.07.189-.38.283-.613.283-.229 0-.38-.09-.458-.273-.077-.182-.115-.598-.115-1.248v-3.91c0-.675.034-1.095.102-1.262.067-.167.215-.25.443-.25.234 0 .547.095.628.286.08.191.12.6.12 1.225v3.793zm-10.314-8.544a.61.61 0 0 1 .29.415c.043.188.064.617.064 1.286v5.737c0 .985-.063 1.588-.19 1.81-.128.222-.467.333-1.018.333V22.54c.418 0 .702.044.854.132z"/>
</svg>
