<svg xmlns="http://www.w3.org/2000/svg" width="56" height="56" viewBox="0 0 56 56">
    <path fill="#ACA497" fill-rule="evenodd" d="M19.378 51.459C6.422 46.697-.22 32.334 4.541 19.379 9.303 6.421 23.666-.222 36.621 4.54c12.957 4.762 19.6 19.125 14.838 32.08-4.762 12.957-19.125 19.6-32.08 14.838zm-2.757-33.773a5.998 5.998 0 1 0 10.888-5.036 5.998 5.998 0 0 0-10.888 5.036zm18.767 6.897a5.998 5.998 0 1 0 10.889-5.036 5.998 5.998 0 0 0-10.889 5.036zM28.491 43.35a5.998 5.998 0 1 0 10.888-5.036 5.998 5.998 0 0 0-10.888 5.036zM9.723 36.453a5.998 5.998 0 1 0 10.889-5.036 5.998 5.998 0 0 0-10.889 5.036zm15.555-7.194a3 3 0 1 0 5.444-2.518 3 3 0 0 0-5.444 2.518z"/>
</svg>
