<svg xmlns="http://www.w3.org/2000/svg" width="202" height="56" viewBox="0 0 202 56">
    <g fill="none" fill-rule="evenodd">
        <path fill="#FFF4E3" d="M40.292 35.13c1 .185 1.943.739 2.609 1.667.982 1.368 1.018 3.259.078 4.656a4.13 4.13 0 0 1-6.361.644 4.091 4.091 0 0 1-1.135-2.165c-.113-.621-.893-.844-1.339-.398l-3.496 3.495a3.744 3.744 0 0 1-5.296 0l-3.319-3.318c-.447-.447-.223-1.226.398-1.34a4.08 4.08 0 0 0 2.165-1.135 4.13 4.13 0 0 0-.645-6.361c-1.398-.94-3.288-.903-4.656.079a4.108 4.108 0 0 0-1.665 2.609c-.114.624-.891.854-1.34.405l-3.319-3.32a3.744 3.744 0 0 1 0-5.296l3.495-3.495c.446-.447.223-1.226-.398-1.34a4.08 4.08 0 0 1-2.165-1.135 4.131 4.131 0 0 1 .645-6.362c1.398-.94 3.289-.902 4.657.08a4.102 4.102 0 0 1 1.664 2.608c.115.624.891.854 1.34.405l3.143-3.142a3.744 3.744 0 0 1 5.296 0l3.319 3.319c.447.446.223 1.226-.398 1.339a4.095 4.095 0 0 0-2.165 1.135 4.13 4.13 0 0 0 .643 6.36c1.397.94 3.287.905 4.656-.076a4.11 4.11 0 0 0 1.667-2.611c.114-.624.891-.853 1.34-.405l3.319 3.32a3.745 3.745 0 0 1 0 5.297l-3.142 3.142c-.449.449-.219 1.226.405 1.34M28 3C14.193 3 3 14.193 3 28s11.193 25 25 25 25-11.193 25-25S41.807 3 28 3M67.8 37.961V17.429h8.091c9.831.029 9.715 14.181.029 14.181h-3.886v6.351H67.8zm4.234-10.353h3.857c4.147 0 4.205-5.887 0-5.887h-3.857v5.887zm23.257-10.179l7.366 20.532h-4.466l-1.798-4.698h-6.119l-1.711 4.698H84.01l7.192-20.532h4.089zm-2.784 7.482l-1.16 4.437h3.944l-1.305-4.466-.638-2.929h-.203l-.638 2.958zm13.049-7.482h14.471l1.189 1.943-10.237 14.761h9.831v3.828h-14.79l-1.015-1.943 10.237-14.645h-9.686v-3.944zm20.038 20.532V17.429h4.263v16.24h8.874v4.292h-13.137z"/>
        <path fill="#ACA497" d="M142.964 37.961V17.429h8.091c9.831.029 9.715 14.181.029 14.181h-3.886v6.351h-4.234zm4.234-10.353h3.857c4.147 0 4.205-5.887 0-5.887h-3.857v5.887zM166.975 17.429v13.775c0 1.914 1.856 2.871 3.741 2.871 1.972 0 3.799-.957 3.799-2.871V17.429h4.292v13.775c0 4.698-3.973 7.047-8.091 7.047-4.031 0-8.033-2.349-8.033-7.047V17.429h4.292zM198.787 23.432c0 1.16-.551 2.813-1.943 3.596 2.552 1.247 3.045 3.654 2.755 5.713-.377 2.755-2.378 5.22-7.105 5.22h-8.265V17.4h8.12c3.538 0 6.438 2.059 6.438 6.032zm-10.295 2.03h3.857c2.9 0 3.248-3.886 0-3.886h-3.857v3.886zm0 8.352h3.857c4.002 0 4.06-4.698 0-4.698h-3.857v4.698z"/>
    </g>
</svg>
