<svg xmlns="http://www.w3.org/2000/svg" width="56" height="56" viewBox="0 0 56 56">
    <path fill="#FFC900" fill-rule="evenodd" d="M48.328 40a5.596 5.596 0 0 0-3.56-2.271c-.85-.158-1.165-1.216-.552-1.829l4.288-4.287a5.11 5.11 0 0 0 0-7.226l-4.53-4.529c-.612-.612-1.67-.299-1.828.553a5.605 5.605 0 0 1-2.273 3.561c-1.867 1.339-4.445 1.387-6.352.105a5.636 5.636 0 0 1-.878-8.677 5.575 5.575 0 0 1 2.956-1.548c.846-.155 1.151-1.219.541-1.828l-4.527-4.527a5.108 5.108 0 0 0-7.226 0L20.1 11.784c-.612.612-1.67.299-1.827-.553a5.603 5.603 0 0 0-2.27-3.558c-1.867-1.34-4.446-1.39-6.354-.109a5.636 5.636 0 0 0-.88 8.679 5.584 5.584 0 0 0 2.955 1.549c.846.154 1.151 1.218.542 1.827l-4.769 4.768a5.11 5.11 0 0 0 0 7.225l4.53 4.53c.612.612 1.671.298 1.827-.553a5.605 5.605 0 0 1 2.271-3.559c1.866-1.34 4.445-1.389 6.352-.109a5.636 5.636 0 0 1 .88 8.679 5.577 5.577 0 0 1-2.954 1.548c-.847.155-1.15 1.218-.543 1.828l4.53 4.527a5.11 5.11 0 0 0 7.224 0l4.77-4.769c.607-.608 1.672-.304 1.826.543a5.57 5.57 0 0 0 1.548 2.954 5.634 5.634 0 0 0 8.677-.878c1.283-1.907 1.234-4.486-.106-6.353"/>
</svg>
